<svg xmlns="http://www.w3.org/2000/svg" xmlns:xlink="http://www.w3.org/1999/xlink" version="1.1" x="0px" y="0px" viewBox="0 0 99 99" enable-background="new 0 0 99 99" xml:space="preserve" style="fill: rgb(0, 0, 0);" original_string_length="996">
<g id="__id4_sqzzr7kcns">
	<circle cx="49.5" cy="49.5" r="48" style="fill: rgb(255, 244, 226);"/>
</g>
<g id="__id5_sqzzr7kcns">
	<path d="M49.5,99C22.205,99,0,76.793,0,49.5C0,22.205,22.205,0,49.5,0C76.793,0,99,22.205,99,49.5   C99,76.793,76.793,99,49.5,99z M49.5,3C23.859,3,3,23.859,3,49.5C3,75.141,23.859,96,49.5,96C75.141,96,96,75.141,96,49.5   C96,23.859,75.141,3,49.5,3z" style="fill: rgb(51, 51, 51);"/>
</g>
<g id="__id6_sqzzr7kcns">
	<polygon points="45.524,68.221 63.809,49.236 45.489,30.779 41.227,35.01 55.418,49.303 41.195,64.061  " style="fill: rgb(51, 51, 51);"/>
</g>
</svg>