<svg xmlns="http://www.w3.org/2000/svg" xmlns:xlink="http://www.w3.org/1999/xlink" preserveAspectRatio="xMidYMid meet" version="1.0" viewBox="-6.2 -19.8 515.3 361.8" zoomAndPan="magnify" style="fill: rgb(0, 0, 0);" original_string_length="1443"><g><g id="__id0_s38jp3um1l"><path d="M40.4,19.2c-23.7,18.1-37.5,51.3-40,81c-6.6,79.7,63.7,154.8,126.3,194c60.6,38,136.1,47.8,205,30 c76.8-19.8,177.4-86.9,167.6-178.1c-9.9-92.2-111.2-119.7-172.5-79.6c-49.5,32.4-99.6,19.2-136.3-14.5 C140.2,5.5,91.6-19.8,40.4,19.2z" style="fill: rgb(121, 143, 68);"/></g><g id="__id1_s38jp3um1l"><path d="M194.1,86.3c-0.9,3.6,1.1,7.5,3.5,10.4c13.1,16.5,40.8,29.4,61.8,30.3c27.9,1.3,49.3-7.5,54.4-22 c3-8.4-5.9-11.8-12.9-11.1c-9.2,0.9-17.5,6.7-26.6,8.6c-8.6,1.7-17.4,0.4-26-0.9c-9.7-1.4-18.6-6.6-26.6-11.9 C216,85.8,197.6,72.7,194.1,86.3z" style="fill: rgb(136, 94, 54);"/></g><g><g id="__id2_s38jp3um1l"><path d="M499.3,146c-2.3-21.9-9.9-40-20.7-54.6c9.6,49.9-16.6,108.2-91,147.9C289,292,83.9,266.3,0.3,104.3 c-3.9,78.1,64.9,151.3,126.4,189.9c60.6,38,136.1,47.8,205,30C408.6,304.4,509.1,237.3,499.3,146z" style="fill: rgb(120, 180, 89);"/></g></g><g id="__id3_s38jp3um1l"><path d="M126.6,91.4c-13.2,16.6-37.3,19.4-54,6.3c-16.6-13.2-19.4-37.3-6.3-54c13.2-16.6,37.3-19.4,54-6.3 C136.9,50.6,139.7,74.8,126.6,91.4z" style="fill: rgb(255, 251, 211);"/></g></g></svg>