<?xml version="1.0" encoding="UTF-8"?><svg id="Layer_2" xmlns="http://www.w3.org/2000/svg" viewBox="0 0 332.77 500"><defs><style>.cls-1{fill:#798f44;}.cls-2{fill:#fffbd3;}.cls-3{fill:#885e36;}.cls-4{fill:#78b459;}</style></defs><g id="Layer_1-2"><g id="_id0_s38jp3um1l"><path class="cls-1" d="M19.18,40.43C37.28,16.73,70.48,2.93,100.18.43c79.7-6.6,154.8,63.7,194,126.3,38,60.6,47.8,136.1,30,205-19.8,76.8-86.9,177.4-178.1,167.6-92.2-9.9-119.7-111.2-79.6-172.5,32.4-49.5,19.2-99.6-14.5-136.3C5.48,140.23-19.82,91.63,19.18,40.43Z"/></g><g id="_id1_s38jp3um1l"><path class="cls-3" d="M86.28,194.13c3.6-.9,7.5,1.1,10.4,3.5,16.5,13.1,29.4,40.8,30.3,61.8,1.3,27.9-7.5,49.3-22,54.4-8.4,3-11.8-5.9-11.1-12.9.9-9.2,6.7-17.5,8.6-26.6,1.7-8.6.4-17.4-.9-26-1.4-9.7-6.6-18.6-11.9-26.6-3.9-5.7-17-24.1-3.4-27.6Z"/></g><g id="_id2_s38jp3um1l"><path class="cls-4" d="M145.98,499.33c-21.9-2.3-40-9.9-54.6-20.7,49.9,9.6,108.2-16.6,147.9-91C291.98,289.03,266.28,83.93,104.28.33c78.1-3.9,151.3,64.9,189.9,126.4,38,60.6,47.8,136.1,30,205-19.8,76.9-86.9,177.4-178.2,167.6Z"/></g><g id="_id3_s38jp3um1l"><path class="cls-2" d="M91.38,126.63c16.6-13.2,19.4-37.3,6.3-54-13.2-16.6-37.3-19.4-54-6.3-16.6,13.2-19.4,37.3-6.3,54,13.2,16.6,37.4,19.4,54,6.3Z"/></g></g></svg>